<svg width="8" height="8" viewBox="0 0 8 8" fill="none" xmlns="http://www.w3.org/2000/svg">
<circle cx="4" cy="4" r="4" fill="#12273D"/>
<g clip-path="url(#clip0_12_165)">
<path fill-rule="evenodd" clip-rule="evenodd" d="M6.17425 5.46793C5.81519 5.3485 5.42913 5.25925 5.02281 5.2015C5.07813 4.87657 5.10756 4.53606 5.11694 4.1875H6.61788C6.58431 4.66019 6.4255 5.09762 6.17425 5.46793ZM4.64388 6.54232C4.76875 6.24063 4.87094 5.91457 4.9495 5.57107C5.28662 5.62094 5.60987 5.69463 5.91606 5.79138C5.57781 6.15194 5.13869 6.41725 4.64388 6.54232ZM4.18206 6.61581C4.12169 6.62012 4.0615 6.625 4 6.625C3.9385 6.625 3.8785 6.62012 3.81794 6.61581C3.65838 6.28356 3.52919 5.91382 3.43356 5.52138C3.61994 5.50506 3.80875 5.4955 4 5.4955C4.19125 5.4955 4.38006 5.50506 4.56663 5.52138C4.47081 5.91382 4.34162 6.28356 4.18206 6.61581ZM2.08394 5.79138C2.39013 5.69463 2.71338 5.62094 3.0505 5.57107C3.12906 5.91457 3.23125 6.24063 3.35612 6.54232C2.86131 6.41725 2.42238 6.15194 2.08394 5.79138ZM1.82575 5.46793C1.5745 5.09762 1.41569 4.66019 1.38212 4.1875H2.88306C2.89244 4.53606 2.92187 4.87657 2.97719 5.2015C2.57087 5.25925 2.18481 5.3485 1.82575 5.46793ZM1.82575 2.53207C2.18481 2.6515 2.57087 2.74093 2.97719 2.7985C2.92187 3.12343 2.89244 3.46394 2.88306 3.8125H1.38212C1.41569 3.33981 1.5745 2.90238 1.82575 2.53207ZM3.35612 1.45768C3.23125 1.75937 3.12906 2.08543 3.0505 2.42893C2.71338 2.37924 2.39013 2.30537 2.08394 2.20862C2.42238 1.84806 2.86131 1.58275 3.35612 1.45768ZM3.81794 1.38419C3.8785 1.38006 3.9385 1.375 4 1.375C4.0615 1.375 4.12169 1.38006 4.18206 1.38419C4.34162 1.71644 4.47081 2.08637 4.56663 2.47862C4.38006 2.49493 4.19125 2.5045 4 2.5045C3.80875 2.5045 3.61994 2.49493 3.43356 2.47862C3.52919 2.08637 3.65838 1.71644 3.81794 1.38419ZM4.74137 4.1875C4.73125 4.51769 4.70125 4.84244 4.64481 5.15425C4.43369 5.13588 4.219 5.125 4 5.125C3.781 5.125 3.56631 5.13588 3.35537 5.15425C3.29875 4.84244 3.26875 4.51769 3.25881 4.1875H4.74137ZM3.25881 3.8125C3.26875 3.48231 3.29875 3.15756 3.35537 2.84575C3.56631 2.86412 3.781 2.875 4 2.875C4.219 2.875 4.43369 2.86412 4.64463 2.84575C4.70125 3.15756 4.73125 3.48231 4.74137 3.8125H3.25881ZM5.91606 2.20862C5.60987 2.30537 5.28662 2.37924 4.9495 2.42893C4.87094 2.08543 4.76875 1.75937 4.64388 1.45768C5.13869 1.58275 5.57781 1.84806 5.91606 2.20862ZM6.17425 2.53207C6.4255 2.90238 6.58431 3.33981 6.61788 3.8125H5.11694C5.10756 3.46394 5.07813 3.12343 5.02281 2.7985C5.42913 2.74093 5.81519 2.6515 6.17425 2.53207ZM4 1C2.34325 1 1 2.34306 1 4C1 5.65694 2.34325 7 4 7C5.65675 7 7 5.65694 7 4C7 2.34306 5.65675 1 4 1Z" fill="white"/>
</g>
<defs>
<clipPath id="clip0_12_165">
<rect width="6" height="6" fill="white" transform="translate(1 1)"/>
</clipPath>
</defs>
</svg>
