<svg width="6" height="6" viewBox="0 0 6 6" fill="none" xmlns="http://www.w3.org/2000/svg">
<rect width="6" height="6" rx="1.14286" fill="#ADC80F"/>
<g clip-path="url(#clip0_12_185)">
<path d="M3.88633 1.01283C4.08933 1.02217 4.22967 1.052 4.35933 1.10233C4.48218 1.1485 4.59345 1.22097 4.68533 1.31467C4.77903 1.40655 4.8515 1.51782 4.89767 1.64067C4.948 1.7705 4.97783 1.91067 4.98717 2.11367C4.99867 2.36533 5 2.454 5 3C5 3.546 4.99867 3.63467 4.98717 3.88633C4.97783 4.08933 4.948 4.22967 4.89767 4.3595C4.85148 4.48229 4.77901 4.5935 4.68533 4.68533C4.59345 4.77903 4.48218 4.8515 4.35933 4.89767C4.2295 4.948 4.08933 4.97783 3.88633 4.98717C3.63467 4.99867 3.54617 5 3 5C2.45383 5 2.36517 4.99867 2.11367 4.98717C1.91067 4.97783 1.77033 4.948 1.6405 4.89767C1.51771 4.85148 1.4065 4.77901 1.31467 4.68533C1.22097 4.59345 1.1485 4.48218 1.10233 4.35933C1.052 4.2295 1.02217 4.08933 1.01283 3.88633C1.00133 3.635 1 3.54633 1 3C1 2.45367 1.00133 2.365 1.01283 2.11367C1.02217 1.91067 1.052 1.77033 1.10233 1.64067C1.1485 1.51782 1.22097 1.40655 1.31467 1.31467C1.4065 1.22099 1.51771 1.14852 1.6405 1.10233C1.7705 1.052 1.91067 1.02217 2.11367 1.01283C2.365 1.00133 2.45367 1 3 1C3.54633 1 3.635 1.00133 3.88633 1.01283ZM3 1.4445C2.46 1.4445 2.37733 1.44567 2.13383 1.45683C1.97933 1.46383 1.88667 1.4835 1.8015 1.51667C1.729 1.545 1.68283 1.575 1.62883 1.62883C1.57483 1.68267 1.545 1.729 1.51667 1.80167C1.48367 1.88667 1.46383 1.9795 1.45683 2.134C1.44567 2.37733 1.4445 2.46 1.4445 3C1.4445 3.54 1.44567 3.62267 1.45683 3.86617C1.46383 4.02067 1.4835 4.11333 1.51667 4.19833C1.545 4.271 1.575 4.31717 1.62883 4.37117C1.68267 4.42517 1.729 4.45517 1.8015 4.48333C1.8865 4.51633 1.97933 4.53617 2.13383 4.54317C2.3775 4.55433 2.46017 4.5555 3 4.5555C3.54 4.5555 3.6225 4.55433 3.86617 4.54317C4.02067 4.53617 4.11333 4.5165 4.1985 4.48333C4.271 4.455 4.31717 4.425 4.37117 4.37117C4.42517 4.31733 4.45517 4.271 4.48333 4.1985C4.51633 4.1135 4.53617 4.02067 4.54317 3.86617C4.55433 3.6225 4.5555 3.53983 4.5555 3C4.5555 2.46017 4.55433 2.3775 4.54317 2.13383C4.53617 1.97933 4.5165 1.88667 4.48333 1.80167C4.45981 1.73616 4.42142 1.67699 4.37117 1.62883C4.32301 1.57858 4.26384 1.54019 4.19833 1.51667C4.11333 1.48367 4.0205 1.46383 3.866 1.45683C3.6225 1.44567 3.53983 1.4445 2.99983 1.4445M2.99983 4.037C2.7248 4.037 2.46104 3.92775 2.26656 3.73327C2.07209 3.53879 1.96283 3.27503 1.96283 3C1.96283 2.72497 2.07209 2.46121 2.26656 2.26673C2.46104 2.07226 2.7248 1.963 2.99983 1.963C3.27486 1.963 3.53863 2.07226 3.7331 2.26673C3.92758 2.46121 4.03683 2.72497 4.03683 3C4.03683 3.27503 3.92758 3.53879 3.7331 3.73327C3.53863 3.92775 3.27486 4.037 2.99983 4.037ZM2.99983 3.59267C3.15702 3.59267 3.30777 3.53023 3.41891 3.41908C3.53006 3.30793 3.5925 3.15719 3.5925 3C3.5925 2.84282 3.53006 2.69207 3.41891 2.58092C3.30777 2.46977 3.15702 2.40733 2.99983 2.40733C2.84265 2.40733 2.6919 2.46977 2.58075 2.58092C2.46961 2.69207 2.40717 2.84282 2.40717 3C2.40717 3.15719 2.46961 3.30793 2.58075 3.41908C2.6919 3.53023 2.84265 3.59267 2.99983 3.59267ZM4.03683 2.18517C3.97789 2.18517 3.92136 2.16175 3.87968 2.12007C3.838 2.07839 3.81458 2.02186 3.81458 1.96292C3.81458 1.90397 3.838 1.84744 3.87968 1.80576C3.92136 1.76408 3.97789 1.74067 4.03683 1.74067C4.09578 1.74067 4.15231 1.76408 4.19399 1.80576C4.23567 1.84744 4.25908 1.90397 4.25908 1.96292C4.25908 2.02186 4.23567 2.07839 4.19399 2.12007C4.15231 2.16175 4.09578 2.18517 4.03683 2.18517Z" fill="white"/>
</g>
<defs>
<clipPath id="clip0_12_185">
<rect width="4" height="4" fill="white" transform="translate(1 1)"/>
</clipPath>
</defs>
</svg>
