<svg width="6" height="6" viewBox="0 0 6 6" fill="none" xmlns="http://www.w3.org/2000/svg">
<rect width="6" height="6" rx="1.14286" fill="#ADC80F"/>
<path d="M4.55556 1C4.67343 1 4.78648 1.04683 4.86983 1.13017C4.95317 1.21352 5 1.32657 5 1.44444V4.55556C5 4.67343 4.95317 4.78648 4.86983 4.86983C4.78648 4.95317 4.67343 5 4.55556 5H1.44444C1.32657 5 1.21352 4.95317 1.13017 4.86983C1.04683 4.78648 1 4.67343 1 4.55556V1.44444C1 1.32657 1.04683 1.21352 1.13017 1.13017C1.21352 1.04683 1.32657 1 1.44444 1H4.55556ZM4.44444 4.44444V3.26667C4.44444 3.07453 4.36812 2.89027 4.23226 2.75441C4.0964 2.61855 3.91213 2.54222 3.72 2.54222C3.53111 2.54222 3.31111 2.65778 3.20444 2.83111V2.58444H2.58444V4.44444H3.20444V3.34889C3.20444 3.17778 3.34222 3.03778 3.51333 3.03778C3.59585 3.03778 3.67498 3.07056 3.73332 3.1289C3.79167 3.18724 3.82444 3.26638 3.82444 3.34889V4.44444H4.44444ZM1.86222 2.23556C1.96124 2.23556 2.0562 2.19622 2.12621 2.12621C2.19622 2.0562 2.23556 1.96124 2.23556 1.86222C2.23556 1.65556 2.06889 1.48667 1.86222 1.48667C1.76262 1.48667 1.66709 1.52623 1.59666 1.59666C1.52623 1.66709 1.48667 1.76262 1.48667 1.86222C1.48667 2.06889 1.65556 2.23556 1.86222 2.23556ZM2.17111 4.44444V2.58444H1.55556V4.44444H2.17111Z" fill="white"/>
</svg>
