<svg width="8" height="8" viewBox="0 0 8 8" fill="none" xmlns="http://www.w3.org/2000/svg">
<path d="M4.14 7.54C6.02329 7.54 7.55 6.01329 7.55 4.13C7.55 2.24671 6.02329 0.720001 4.14 0.720001C2.25671 0.720001 0.729996 2.24671 0.729996 4.13C0.729996 6.01329 2.25671 7.54 4.14 7.54Z" fill="#12273D"/>
<path d="M4.16 6.4C4.97 5.57 5.77 4.83 5.77 3.91C5.77 3.48301 5.60038 3.07349 5.29845 2.77156C4.99651 2.46963 4.587 2.3 4.16 2.3C3.73301 2.3 3.32349 2.46963 3.02156 2.77156C2.71963 3.07349 2.55 3.48301 2.55 3.91C2.55 4.83 3.36 5.57 4.16 6.4Z" stroke="white" stroke-width="0.4" stroke-linecap="round" stroke-linejoin="round"/>
<path d="M4.16 4.55C4.29647 4.55 4.42987 4.50953 4.54333 4.43371C4.6568 4.3579 4.74525 4.25013 4.79747 4.12405C4.84969 3.99797 4.86337 3.85923 4.83675 3.72539C4.81012 3.59154 4.7444 3.46859 4.6479 3.37209C4.55141 3.27559 4.42846 3.20988 4.29462 3.18326C4.16077 3.15663 4.02203 3.1703 3.89595 3.22252C3.76987 3.27475 3.66211 3.36318 3.58629 3.47665C3.51047 3.59012 3.47 3.72353 3.47 3.86C3.47 4.043 3.54269 4.2185 3.67209 4.3479C3.80149 4.4773 3.977 4.55 4.16 4.55Z" stroke="white" stroke-width="0.4" stroke-linecap="round" stroke-linejoin="round"/>
</svg>
