<svg width="8" height="13" viewBox="0 0 8 13" fill="none" xmlns="http://www.w3.org/2000/svg">
<path d="M5.84 0.339996H2.61C1.57171 0.339996 0.729996 1.1817 0.729996 2.22V10.52C0.729996 11.5583 1.57171 12.4 2.61 12.4H5.84C6.87829 12.4 7.72 11.5583 7.72 10.52V2.22C7.72 1.1817 6.87829 0.339996 5.84 0.339996Z" fill="#12273D"/>
<path fill-rule="evenodd" clip-rule="evenodd" d="M5.58999 10.33C5.34342 10.2465 5.08865 10.1895 4.82999 10.16C4.87024 9.93895 4.89032 9.71469 4.88999 9.49001H5.88999C5.86381 9.78958 5.76421 10.0781 5.6 10.33H5.58999ZM4.58999 11.03C4.67899 10.8278 4.74604 10.6166 4.78999 10.4C5.00659 10.4302 5.22055 10.477 5.42999 10.54C5.20331 10.7812 4.91151 10.9514 4.58999 11.03ZM4.28999 11.03H4.02999C3.9228 10.8024 3.83904 10.5645 3.77999 10.32H4.14999H4.52C4.46553 10.5659 4.38159 10.8043 4.27 11.03H4.28999ZM2.91999 10.49C3.12602 10.427 3.33667 10.3802 3.55 10.35C3.59857 10.5653 3.66548 10.7761 3.74999 10.98C3.43141 10.9012 3.14286 10.7309 2.91999 10.49ZM2.74999 10.28C2.57739 10.0323 2.47699 9.74146 2.45998 9.44H3.45998C3.45998 9.67 3.46 9.89 3.52 10.11C3.2646 10.1395 3.01315 10.1965 2.77 10.28H2.74999ZM2.74999 8.36C2.99314 8.44351 3.2446 8.50051 3.49999 8.53C3.49999 8.75 3.44999 8.97 3.43999 9.2H2.43999C2.457 8.89855 2.55739 8.60774 2.72999 8.36H2.74999ZM3.74999 7.66C3.66548 7.86392 3.59857 8.07469 3.55 8.29C3.33667 8.25984 3.12602 8.21303 2.91999 8.15001C3.14286 7.90911 3.43141 7.73876 3.74999 7.66ZM4.05 7.61H4.28999C4.40153 7.83926 4.48545 8.08095 4.53999 8.33001H3.8C3.85905 8.08225 3.94281 7.84105 4.05 7.61ZM4.66 9.44C4.65204 9.65474 4.62864 9.86863 4.58999 10.08C4.45018 10.0696 4.3098 10.0696 4.16999 10.08C4.03016 10.0702 3.88982 10.0702 3.74999 10.08C3.70977 9.86905 3.68968 9.65475 3.68999 9.44H4.66ZM3.66 9.2C3.6592 8.98854 3.67929 8.77751 3.71999 8.57H4.55999C4.5992 8.77793 4.6226 8.98854 4.63 9.2H3.66ZM5.39999 8.2C5.19055 8.26299 4.97659 8.3098 4.75999 8.34C4.71604 8.12346 4.64899 7.91225 4.55999 7.71C4.88151 7.7886 5.17331 7.95882 5.39999 8.2ZM5.56998 8.41C5.7342 8.66192 5.83381 8.95043 5.85999 9.25H4.85999C4.86032 9.02531 4.84024 8.80106 4.8 8.58001C5.05865 8.55053 5.31342 8.49354 5.55999 8.41H5.56998ZM4.13999 7.41C3.74443 7.41 3.35775 7.5273 3.02885 7.74706C2.69995 7.96683 2.4436 8.27919 2.29223 8.64464C2.14085 9.01009 2.10124 9.41222 2.17841 9.80019C2.25558 10.1881 2.44607 10.5445 2.72578 10.8242C3.00548 11.1039 3.36185 11.2944 3.74981 11.3716C4.13777 11.4487 4.53991 11.4091 4.90536 11.2578C5.27081 11.1064 5.58316 10.85 5.80293 10.5211C6.02269 10.1922 6.13999 9.80557 6.13999 9.41C6.13999 8.87957 5.92928 8.37086 5.55421 7.99579C5.17913 7.62072 4.67042 7.41 4.13999 7.41Z" fill="white"/>
<path d="M3.69 5H2.88C2.73195 5.03419 2.57804 5.03419 2.42999 5C2.35085 4.95803 2.28763 4.8913 2.25 4.81C2.19915 4.6658 2.18204 4.51185 2.2 4.36V2.67C2.18204 2.51815 2.19915 2.3642 2.25 2.22C2.28818 2.14156 2.35155 2.07818 2.42999 2.04C2.57804 2.00581 2.73195 2.00581 2.88 2.04H5.35001C5.49806 2.00581 5.65195 2.00581 5.8 2.04C5.8813 2.07763 5.94804 2.14085 5.99001 2.22C6.02419 2.36805 6.02419 2.52195 5.99001 2.67V3.06M5.89999 2.69L4.83 3.4C4.66335 3.53596 4.47369 3.64095 4.27 3.71C4.13836 3.74 4.00164 3.74 3.87 3.71C3.66446 3.64519 3.47404 3.53977 3.31 3.4L2.17999 2.65M4.49001 5.4L4.92999 5.32H5L5.06 5.27L5.95 4.39C5.97823 4.36176 6.00063 4.32825 6.01591 4.29136C6.0312 4.25447 6.03905 4.21493 6.03905 4.175C6.03905 4.13507 6.0312 4.09553 6.01591 4.05864C6.00063 4.02175 5.97823 3.98823 5.95 3.96C5.92176 3.93176 5.88824 3.90937 5.85135 3.89409C5.81446 3.87881 5.77493 3.87094 5.735 3.87094C5.69507 3.87094 5.65553 3.87881 5.61864 3.89409C5.58175 3.90937 5.54824 3.93176 5.52 3.96L4.63 4.85L4.58 4.9C4.58 4.9 4.58 4.9 4.58 4.97L4.49001 5.4Z" stroke="white" stroke-width="0.3" stroke-linecap="round" stroke-linejoin="round"/>
</svg>
