<svg width="8" height="8" viewBox="0 0 8 8" fill="none" xmlns="http://www.w3.org/2000/svg">
<path d="M4.14 7.27C6.02329 7.27 7.55 5.74329 7.55 3.86C7.55 1.97671 6.02329 0.450001 4.14 0.450001C2.25671 0.450001 0.729996 1.97671 0.729996 3.86C0.729996 5.74329 2.25671 7.27 4.14 7.27Z" fill="#12273D"/>
<path d="M4.42 2.83C4.58466 2.87135 4.73608 2.95395 4.86 3.07C4.98029 3.18938 5.06064 3.34309 5.08999 3.51M4.42 2.15C4.76487 2.18777 5.08622 2.34315 5.33 2.59C5.58103 2.83486 5.73696 3.16089 5.77 3.51M5.17999 5.4C4.47717 5.4 3.80314 5.1208 3.30617 4.62383C2.80919 4.12686 2.53 3.45282 2.53 2.75V2.55C2.52109 2.50376 2.52109 2.45624 2.53 2.41C2.54534 2.37985 2.56986 2.35535 2.6 2.34C2.65258 2.32727 2.70742 2.32727 2.75999 2.34H3.38L3.45 2.39C3.47401 2.42653 3.49097 2.46723 3.5 2.51L3.7 3.06C3.70922 3.10958 3.70922 3.16042 3.7 3.21C3.70861 3.23938 3.70861 3.27062 3.7 3.3C3.66308 3.33835 3.61888 3.36895 3.56999 3.39L3.33999 3.53C3.54837 3.96844 3.90155 4.32162 4.33999 4.53L4.47999 4.29C4.50039 4.24362 4.53118 4.20256 4.56999 4.17C4.59885 4.15832 4.63114 4.15832 4.66 4.17C4.66 4.17 4.73 4.17 4.81 4.17L5.35 4.37C5.39296 4.38344 5.43347 4.4037 5.47 4.43C5.49474 4.44635 5.51256 4.47129 5.52 4.5C5.52675 4.54307 5.52675 4.58693 5.52 4.63V5.11C5.52739 5.16308 5.52739 5.21692 5.52 5.27C5.5022 5.30104 5.4784 5.32823 5.45 5.35C5.40029 5.3577 5.34971 5.3577 5.3 5.35L5.17999 5.4Z" stroke="white" stroke-width="0.3" stroke-linecap="round" stroke-linejoin="round"/>
</svg>
