<svg width="8" height="8" viewBox="0 0 8 8" fill="none" xmlns="http://www.w3.org/2000/svg">
<circle cx="4" cy="4" r="4" fill="#12273D"/>
<path d="M3.5 5.75H2.55C2.26997 5.75 2.12996 5.75 2.023 5.6955C1.92892 5.64757 1.85243 5.57108 1.8045 5.477C1.75 5.37005 1.75 5.23003 1.75 4.95V3.05C1.75 2.76997 1.75 2.62996 1.8045 2.52301C1.85243 2.42892 1.92892 2.35243 2.023 2.3045C2.12996 2.25 2.26997 2.25 2.55 2.25H5.45C5.73002 2.25 5.87005 2.25 5.977 2.3045C6.07107 2.35243 6.14757 2.42892 6.1955 2.52301C6.25 2.62996 6.25 2.76997 6.25 3.05V3.5M6.15167 3.06557L4.88747 3.90838C4.56672 4.1222 4.40635 4.22912 4.233 4.27067C4.0798 4.30737 3.9201 4.30737 3.76692 4.27067C3.59357 4.22912 3.4332 4.1222 3.11244 3.90838L1.78686 3.02466M4.5 6.25L5.00625 6.14875C5.05037 6.13992 5.07245 6.1355 5.09302 6.12743C5.1113 6.12028 5.12867 6.11098 5.14475 6.09975C5.1629 6.0871 5.1788 6.0712 5.21065 6.03935L6.25 5C6.38807 4.86193 6.38807 4.63807 6.25 4.5C6.11192 4.36193 5.88807 4.36193 5.75 4.5L4.71065 5.53935C4.6788 5.5712 4.6629 5.5871 4.65025 5.60525C4.63902 5.62132 4.62972 5.6387 4.62257 5.65697C4.6145 5.67755 4.61007 5.69963 4.60125 5.74375L4.5 6.25Z" stroke="white" stroke-width="0.416667" stroke-linecap="round" stroke-linejoin="round"/>
</svg>
